<svg id="svg6" clip-rule="evenodd" fill-rule="evenodd" height="512" stroke-linejoin="round" stroke-miterlimit="2" viewBox="0 0 24 24" width="512" xmlns="http://www.w3.org/2000/svg" xmlns:svg="http://www.w3.org/2000/svg"><path id="path2" d="m10 7h-5c-1.657 0-3 1.343-3 3v4c0 1.657 1.343 3 3 3h5c.552 0 1-.448 1-1s-.448-1-1-1c0 0-2.931 0-5 0-.552 0-1-.448-1-1 0-1.222 0-2.778 0-4 0-.552.448-1 1-1h5c.552 0 1-.448 1-1s-.448-1-1-1zm4 10h5c1.657 0 3-1.343 3-3 0-1.222 0-2.778 0-4 0-1.657-1.343-3-3-3-2.069 0-5 0-5 0-.552 0-1 .448-1 1s.448 1 1 1h5c.552 0 1 .448 1 1v4c0 .552-.448 1-1 1-2.069 0-5 0-5 0-.552 0-1 .448-1 1s.448 1 1 1zm1-6h-6c-.552 0-1 .448-1 1s.448 1 1 1h6c.552 0 1-.448 1-1s-.448-1-1-1z"/></svg>